<svg width="1200" height="675" viewBox="0 0 1200 675" fill="none" xmlns="http://www.w3.org/2000/svg">
  <rect width="1200" height="675" fill="#07111f"/>
  <rect x="156" y="84" width="888" height="507" rx="28" fill="#0f1b2e" stroke="#38bdf8" stroke-opacity=".35" stroke-width="2"/>
  <rect x="203" y="132" width="794" height="78" rx="18" fill="#13253d"/>
  <circle cx="240" cy="171" r="10" fill="#ef4444"/>
  <circle cx="274" cy="171" r="10" fill="#f59e0b"/>
  <circle cx="308" cy="171" r="10" fill="#22c55e"/>
  <rect x="229" y="261" width="313" height="24" rx="12" fill="#38bdf8" fill-opacity=".8"/>
  <rect x="229" y="321" width="562" height="18" rx="9" fill="#e2e8f0" fill-opacity=".22"/>
  <rect x="229" y="369" width="651" height="18" rx="9" fill="#e2e8f0" fill-opacity=".18"/>
  <rect x="229" y="417" width="486" height="18" rx="9" fill="#e2e8f0" fill-opacity=".18"/>
  <rect x="229" y="465" width="610" height="18" rx="9" fill="#e2e8f0" fill-opacity=".14"/>
  <path d="M892 284 835 459l46-20 33 56 47-28-33-55 42-30-78-98Z" fill="#7c3aed"/>
  <path d="M892 284 835 459l46-20 33 56 47-28-33-55 42-30-78-98Z" stroke="#e2e8f0" stroke-opacity=".7" stroke-width="4"/>
</svg>
